<svg width="16" height="16" viewBox="0 0 16 16" fill="none" xmlns="http://www.w3.org/2000/svg">
<path d="M4.48022 1.90999C5.02722 1.93244 5.55969 2.0927 6.02821 2.37591C6.49672 2.65912 6.88611 3.05609 7.16022 3.52999L8.00022 4.84999L8.83022 3.51999C9.09156 3.04678 9.47137 2.64959 9.93241 2.36736C10.3935 2.08512 10.9199 1.92751 11.4602 1.90999C11.8527 1.91055 12.2408 1.99363 12.5991 2.15385C12.9574 2.31407 13.2781 2.54784 13.5402 2.83999C15.0202 4.42999 14.8702 6.61999 13.1702 8.40999L8.00022 13.66L2.78022 8.35999C1.11022 6.50999 0.980221 4.35999 2.42022 2.82999C2.681 2.54215 2.99882 2.31171 3.35346 2.15332C3.7081 1.99494 4.09182 1.91207 4.48022 1.90999ZM4.48022 0.909986C3.95471 0.912518 3.43543 1.02402 2.95521 1.23746C2.47498 1.45089 2.04425 1.76161 1.69022 2.14999C-0.0597787 3.99999 0.000221252 6.72999 2.00022 8.99999L8.00022 15.06L13.9002 9.05999C16.0602 6.78999 16.0502 3.99999 14.3002 2.10999C13.9409 1.71947 13.5052 1.407 13.0201 1.19196C12.535 0.97693 12.0108 0.863931 11.4802 0.859985C10.7637 0.881343 10.0653 1.09018 9.4547 1.46568C8.84408 1.84117 8.34258 2.3702 8.00022 2.99999C7.63833 2.38218 7.12554 1.86635 6.50989 1.5008C5.89424 1.13526 5.19588 0.931975 4.48022 0.909986Z" fill="black"/>
</svg>
