<svg width="121" height="34" viewBox="0 0 121 34" fill="none" xmlns="http://www.w3.org/2000/svg">
<g clip-path="url(#clip0_130_125)">
<path d="M0.367037 0.663774H16.0762C29.5832 0.663774 34.8686 8.62907 34.8686 17.0615C34.8686 25.6414 28.0906 33.2871 15.1953 33.2871H0.391507C0.122346 33.2871 0.0244692 33.115 0.0244692 32.9675C0.0244692 32.7954 0.195753 32.6479 0.440445 32.6479H3.20546C4.06188 32.6479 4.62467 32.1316 4.62467 31.1728V2.82719C4.62467 2.11424 4.2821 1.32755 3.15652 1.32755H0.342568C0.122346 1.32755 0 1.18004 0 1.00795C0 0.860448 0.0489383 0.663774 0.367037 0.663774ZM10.1792 31.7628C10.1792 32.4758 10.4973 32.697 10.9622 32.697H15.1219C25.3745 32.697 29.0938 24.8055 29.0938 16.8894C29.0938 8.97325 25.1543 1.30296 16.4922 1.30296H10.8398C10.2526 1.30296 10.2036 1.79465 10.2036 2.01591L10.1792 31.7628ZM36.4346 0.663774C36.1899 0.663774 35.9697 0.762111 35.9697 0.958785C35.9697 1.15546 36.092 1.27838 36.3122 1.27838H39.0772C39.7134 1.27838 40.3252 1.7209 40.3252 2.95011V31.1974C40.3252 31.7874 39.8847 32.6724 39.1017 32.6724H36.3612C36.0431 32.6724 36.0186 32.9183 36.0186 33.0166C36.0186 33.115 35.9941 33.2871 36.3612 33.2871H49.6724C49.8682 33.2871 50.1373 33.2625 50.1373 33.0658C50.1373 32.8691 50.0884 32.6724 49.7458 32.6724H47.1765C46.8095 32.6724 45.8063 32.4512 45.8063 31.3203V2.6551C45.8063 1.84382 46.3201 1.30296 47.25 1.30296H49.7703C49.9905 1.30296 50.1128 1.18004 50.1128 1.00795C50.1128 0.835864 49.9905 0.688359 49.6969 0.688359H36.4346V0.663774ZM57.2334 16.9877C57.2334 7.96529 61.2463 0.663774 68.7828 0.663774C76.1725 0.663774 80.3323 7.96529 80.3323 16.9877C80.3323 26.0101 76.5395 33.3116 68.7828 33.3116C61.2708 33.3362 57.2334 26.0101 57.2334 16.9877ZM68.7828 34C79.5003 34 86.2538 26.3789 86.2538 17.0123C86.2538 7.6457 79.5737 0 68.7828 0C58.0164 0 51.3118 7.62111 51.3118 16.9877C51.3118 26.3543 58.2855 34 68.7828 34ZM120.511 33.0904C116.302 33.5329 113.977 26.6001 111.849 23.3059C110.258 20.872 106.881 18.389 103.553 17.8973C109.035 17.5777 115.176 15.8077 115.176 9.56327C115.176 4.49892 112.069 0.663774 100.666 0.663774H87.5262C87.3549 0.663774 87.1836 0.762111 87.1836 0.958785C87.1836 1.15546 87.3549 1.27838 87.5262 1.27838H90.5359C91.1721 1.27838 91.7838 1.7209 91.7838 2.95011V31.1974C91.7838 31.7874 91.3434 32.6724 90.5604 32.6724H87.5996C87.3549 32.6724 87.257 32.8691 87.257 32.9675C87.257 33.0658 87.3549 33.2871 87.5996 33.2871H101.547C101.743 33.2871 101.914 33.1887 101.914 32.992C101.914 32.7954 101.792 32.6724 101.523 32.6724H98.7086C98.3416 32.6724 97.3383 32.4266 97.3383 31.3203V17.9711H98.782C105.682 17.9711 106.196 25.4939 109.622 29.7961C112.558 33.4837 116.4 33.9508 118.578 33.9508C119.507 33.9508 120.144 33.9262 120.731 33.7787C121.098 33.6558 121.171 33.0166 120.511 33.0904ZM98.7331 1.27838H100.764C104.239 1.27838 109.867 2.6551 109.867 9.24367C109.867 15.2914 104.875 17.3319 100.25 17.3319H97.2894V2.6551C97.2894 1.81923 97.8032 1.27838 98.7331 1.27838Z" fill="#111111"/>
</g>
<defs>
<clipPath id="clip0_130_125">
<rect width="121" height="34" fill="white"/>
</clipPath>
</defs>
</svg>
