<svg width="16" height="16" viewBox="0 0 16 16" fill="none" xmlns="http://www.w3.org/2000/svg">
<path d="M15.1695 14.4799L9.99952 9.35994C10.7955 8.39503 11.2388 7.18761 11.2563 5.93687C11.2738 4.68613 10.8644 3.4668 10.0957 2.48001C9.327 1.49322 8.24489 0.797946 7.02788 0.508873C5.81088 0.219801 4.5317 0.354205 3.40135 0.889912C2.27101 1.42562 1.35704 2.33063 0.81022 3.45563C0.263398 4.58064 0.116394 5.85844 0.393458 7.07823C0.670522 8.29802 1.3551 9.38694 2.33426 10.1653C3.31342 10.9437 4.52867 11.3651 5.77952 11.3599C7.06314 11.3664 8.30724 10.9163 9.28952 10.0899L14.4295 15.2199C14.5242 15.3093 14.6494 15.359 14.7795 15.359C14.9097 15.359 15.0349 15.3093 15.1295 15.2199C15.1837 15.1759 15.2281 15.1211 15.2598 15.0589C15.2915 14.9967 15.3098 14.9285 15.3136 14.8588C15.3173 14.7891 15.3065 14.7194 15.2817 14.6541C15.2568 14.5889 15.2187 14.5295 15.1695 14.4799ZM5.81952 10.3299C5.22857 10.3299 4.64341 10.2135 4.09745 9.9874C3.55148 9.76126 3.0554 9.42979 2.63754 9.01192C2.21968 8.59406 1.88821 8.09798 1.66206 7.55202C1.43592 7.00605 1.31952 6.42089 1.31952 5.82994C1.31952 5.239 1.43592 4.65383 1.66206 4.10787C1.88821 3.5619 2.21968 3.06583 2.63754 2.64796C3.0554 2.2301 3.55148 1.89863 4.09745 1.67249C4.64341 1.44634 5.22857 1.32994 5.81952 1.32994C7.013 1.32994 8.15759 1.80405 9.0015 2.64796C9.84542 3.49188 10.3195 4.63647 10.3195 5.82994C10.3195 7.02342 9.84542 8.16801 9.0015 9.01192C8.15759 9.85584 7.013 10.3299 5.81952 10.3299Z" fill="black"/>
</svg>
