<svg width="14" height="16" viewBox="0 0 14 16" fill="none" xmlns="http://www.w3.org/2000/svg">
<path d="M7 8C8.06087 8 9.07828 7.57857 9.82843 6.82843C10.5786 6.07828 11 5.06087 11 4C11 2.93913 10.5786 1.92172 9.82843 1.17157C9.07828 0.421427 8.06087 0 7 0C5.93913 0 4.92172 0.421427 4.17157 1.17157C3.42143 1.92172 3 2.93913 3 4C3 5.06087 3.42143 6.07828 4.17157 6.82843C4.92172 7.57857 5.93913 8 7 8ZM7 1C7.79565 1 8.55871 1.31607 9.12132 1.87868C9.68393 2.44129 10 3.20435 10 4C10 4.79565 9.68393 5.55871 9.12132 6.12132C8.55871 6.68393 7.79565 7 7 7C6.20435 7 5.44129 6.68393 4.87868 6.12132C4.31607 5.55871 4 4.79565 4 4C4 3.20435 4.31607 2.44129 4.87868 1.87868C5.44129 1.31607 6.20435 1 7 1ZM7 9C2 9 0 11 0 16H14C14 11 12 9 7 9ZM7 10C11.08 10 12.73 11.33 13 15H1C1.27 11.33 2.92 10 7 10Z" fill="black"/>
</svg>
